<svg width="529" height="261" viewBox="0 0 529 261" fill="none" xmlns="http://www.w3.org/2000/svg">
<path d="M32.9951 174.235H0.26593V3.36014H38.9534L107.558 113.464L110.599 112.985V3.36014H143.078V174.235H108.495L35.9118 56.6518L32.9951 57.131V174.235Z" fill="white"/>
<path d="M216.536 3.36014C228.77 3.36014 239.228 5.60493 247.911 10.0893C256.603 14.5789 263.171 20.8549 267.619 28.9226C272.062 36.9799 274.286 46.3393 274.286 57.006C274.286 67.6883 272.062 77.0424 267.619 85.0685C263.171 93.0841 256.603 99.3341 247.911 103.818C239.228 108.308 228.77 110.548 216.536 110.548H184.286V174.235H150.515V3.36014H216.536ZM212.098 83.7768C230.874 83.7768 240.265 74.8549 240.265 57.006C240.265 39.0893 230.874 30.131 212.098 30.131H184.286V83.7768H212.098Z" fill="white"/>
<path d="M335.579 3.36014C347.813 3.36014 358.272 5.60493 366.954 10.0893C375.647 14.5789 382.214 20.8549 386.662 28.9226C391.105 36.9799 393.329 46.3393 393.329 57.006C393.329 67.6883 391.105 77.0424 386.662 85.0685C382.214 93.0841 375.647 99.3341 366.954 103.818C358.272 108.308 347.813 110.548 335.579 110.548H303.329V174.235H269.558V3.36014H335.579ZM331.141 83.7768C349.917 83.7768 359.308 74.8549 359.308 57.006C359.308 39.0893 349.917 30.131 331.141 30.131H303.329V83.7768H331.141Z" fill="white"/>
<path d="M459.768 176.693C444.028 176.693 430.164 173.423 418.164 166.881C406.164 160.329 396.773 150.485 389.997 137.36C383.216 124.235 379.831 108.048 379.831 88.7976C379.831 69.5633 383.216 53.381 389.997 40.256C396.773 27.1206 406.164 17.2768 418.164 10.7351C430.164 4.19347 444.028 0.922638 459.768 0.922638C476.211 0.922638 490.174 4.14139 501.664 10.5685C513.164 16.9851 521.362 26.7768 526.268 39.9435L501.622 55.0268L498.685 54.9018C495.028 46.0268 490.065 39.6622 483.789 35.7976C477.523 31.9383 469.518 30.006 459.768 30.006C445.586 30.006 434.523 34.7039 426.581 44.0893C418.633 53.4799 414.664 68.381 414.664 88.7976C414.664 109.131 418.633 123.996 426.581 133.381C434.523 142.772 445.586 147.464 459.768 147.464C481.976 147.464 495.57 136.673 500.56 115.089H503.476L528.372 128.068C523.706 144.277 515.716 156.438 504.414 164.548C493.122 172.647 478.237 176.693 459.768 176.693Z" fill="white"/>
<path d="M26.7451 221.235H20.3701V188.006H27.891L41.2451 209.423L41.8285 209.318V188.006H48.141V221.235H41.4118L27.3076 198.381L26.7451 198.464V221.235Z" fill="white"/>
<path d="M84.3533 221.235H77.4574L74.9574 213.568H62.2283L59.7283 221.235H52.9783L64.4574 188.006H72.8949L84.3533 221.235ZM68.2699 194.943L63.9991 208.048H73.1449L68.8324 194.943H68.2699Z" fill="white"/>
<path d="M111.48 188.006V193.527H101.896V221.235H95.3548V193.527H85.7714V188.006H111.48Z" fill="white"/>
<path d="M123.288 221.235H116.704V188.006H123.288V221.235Z" fill="white"/>
<path d="M145.719 221.714C142.677 221.714 139.989 221.1 137.656 219.86C135.333 218.61 133.516 216.709 132.198 214.152C130.875 211.6 130.219 208.423 130.219 204.631C130.219 200.829 130.875 197.647 132.198 195.089C133.516 192.537 135.333 190.641 137.656 189.402C139.989 188.152 142.677 187.527 145.719 187.527C148.771 187.527 151.453 188.147 153.76 189.381C156.078 190.621 157.891 192.522 159.198 195.089C160.516 197.647 161.177 200.829 161.177 204.631C161.177 208.423 160.516 211.605 159.198 214.173C157.891 216.73 156.078 218.626 153.76 219.86C151.453 221.1 148.771 221.714 145.719 221.714ZM145.719 216.006C148.536 216.006 150.687 215.105 152.177 213.298C153.661 211.48 154.406 208.589 154.406 204.631C154.406 200.662 153.661 197.766 152.177 195.943C150.687 194.126 148.536 193.214 145.719 193.214C142.885 193.214 140.724 194.126 139.239 195.943C137.75 197.766 137.01 200.662 137.01 204.631C137.01 208.589 137.75 211.48 139.239 213.298C140.724 215.105 142.885 216.006 145.719 216.006Z" fill="white"/>
<path d="M174.495 221.235H168.12V188.006H175.641L188.995 209.423L189.579 209.318V188.006H195.891V221.235H189.162L175.058 198.381L174.495 198.464V221.235Z" fill="white"/>
<path d="M232.104 221.235H225.208L222.708 213.568H209.979L207.479 221.235H200.729L212.208 188.006H220.645L232.104 221.235ZM216.02 194.943L211.749 208.048H220.895L216.583 194.943H216.02Z" fill="white"/>
<path d="M243.501 188.006V215.735H258.418V221.235H236.918V188.006H243.501Z" fill="white"/>
<path d="M287.647 188.006C290.022 188.006 292.048 188.443 293.73 189.318C295.423 190.193 296.699 191.417 297.563 192.985C298.423 194.542 298.855 196.36 298.855 198.443C298.855 200.516 298.423 202.334 297.563 203.902C296.699 205.459 295.423 206.673 293.73 207.548C292.048 208.423 290.022 208.86 287.647 208.86H281.376V221.235H274.792V188.006H287.647ZM286.772 203.652C290.423 203.652 292.251 201.917 292.251 198.443C292.251 194.959 290.423 193.214 286.772 193.214H281.376V203.652H286.772Z" fill="white"/>
<path d="M318.938 221.714C315.897 221.714 313.209 221.1 310.876 219.86C308.553 218.61 306.735 216.709 305.418 214.152C304.095 211.6 303.438 208.423 303.438 204.631C303.438 200.829 304.095 197.647 305.418 195.089C306.735 192.537 308.553 190.641 310.876 189.402C313.209 188.152 315.897 187.527 318.938 187.527C321.991 187.527 324.673 188.147 326.98 189.381C329.298 190.621 331.11 192.522 332.418 195.089C333.735 197.647 334.397 200.829 334.397 204.631C334.397 208.423 333.735 211.605 332.418 214.173C331.11 216.73 329.298 218.626 326.98 219.86C324.673 221.1 321.991 221.714 318.938 221.714ZM318.938 216.006C321.756 216.006 323.907 215.105 325.397 213.298C326.881 211.48 327.626 208.589 327.626 204.631C327.626 200.662 326.881 197.766 325.397 195.943C323.907 194.126 321.756 193.214 318.938 193.214C316.105 193.214 313.944 194.126 312.459 195.943C310.97 197.766 310.23 200.662 310.23 204.631C310.23 208.589 310.97 211.48 312.459 213.298C313.944 215.105 316.105 216.006 318.938 216.006Z" fill="white"/>
<path d="M347.924 188.006V215.735H362.84V221.235H341.34V188.006H347.924Z" fill="white"/>
<path d="M374.825 221.235H368.241V188.006H374.825V221.235Z" fill="white"/>
<path d="M405.776 188.006V193.527H396.193V221.235H389.651V193.527H380.068V188.006H405.776Z" fill="white"/>
<path d="M417.584 221.235H411.001V188.006H417.584V221.235Z" fill="white"/>
<path d="M440.078 221.714C437.005 221.714 434.307 221.084 431.973 219.818C429.64 218.542 427.812 216.626 426.494 214.068C425.171 211.516 424.515 208.371 424.515 204.631C424.515 200.881 425.171 197.735 426.494 195.193C427.812 192.641 429.64 190.725 431.973 189.443C434.307 188.167 437.005 187.527 440.078 187.527C443.27 187.527 445.984 188.152 448.223 189.402C450.458 190.652 452.046 192.563 452.994 195.131L448.203 198.048L447.64 198.027C446.932 196.308 445.963 195.068 444.744 194.318C443.52 193.568 441.963 193.193 440.078 193.193C437.312 193.193 435.161 194.11 433.619 195.943C432.078 197.766 431.307 200.662 431.307 204.631C431.307 208.579 432.078 211.464 433.619 213.298C435.161 215.121 437.312 216.027 440.078 216.027C444.38 216.027 447.02 213.933 447.994 209.735H448.578L453.411 212.256C452.494 215.412 450.937 217.777 448.744 219.36C446.546 220.933 443.661 221.714 440.078 221.714Z" fill="white"/>
<path d="M486.367 221.235H479.471L476.971 213.568H464.242L461.742 221.235H454.992L466.471 188.006H474.909L486.367 221.235ZM470.284 194.943L466.013 208.048H475.159L470.846 194.943H470.284Z" fill="white"/>
<path d="M497.764 188.006V215.735H512.681V221.235H491.181V188.006H497.764Z" fill="white"/>
<path d="M28.568 227.006C30.943 227.006 32.9691 227.443 34.6514 228.318C36.3441 229.193 37.6201 230.417 38.4847 231.985C39.3441 233.542 39.7764 235.36 39.7764 237.443C39.7764 239.516 39.3441 241.334 38.4847 242.902C37.6201 244.459 36.3441 245.673 34.6514 246.548C32.9691 247.423 30.943 247.86 28.568 247.86H22.2972V260.235H15.7139V227.006H28.568ZM27.693 242.652C31.3441 242.652 33.1722 240.917 33.1722 237.443C33.1722 233.959 31.3441 232.214 27.693 232.214H22.2972V242.652H27.693Z" fill="white"/>
<path d="M46.0682 260.235V227.006H59.4224C62.8495 227.006 65.4432 227.798 67.1932 229.381C68.9432 230.964 69.8182 233.152 69.8182 235.943C69.8182 237.959 69.3026 239.61 68.2766 240.902C67.2609 242.183 65.7401 243.167 63.7141 243.86V244.318C64.7557 244.777 65.5943 245.459 66.2349 246.36C66.8859 247.251 67.4953 248.568 68.0682 250.318L71.3807 260.235H64.6307L61.3807 250.298C61.0474 249.298 60.6724 248.527 60.2557 247.985C59.8391 247.433 59.3078 247.027 58.6724 246.777C58.0318 246.527 57.1984 246.402 56.1724 246.402H52.6516V260.235H46.0682ZM58.6099 241.193C61.787 241.193 63.3807 239.709 63.3807 236.735C63.3807 233.725 61.787 232.214 58.6099 232.214H52.6516V241.193H58.6099Z" fill="white"/>
<path d="M83.7103 260.235H77.127V227.006H83.7103V260.235Z" fill="white"/>
<path d="M102.766 260.714C100.459 260.714 98.412 260.428 96.6204 259.86C94.8287 259.292 93.3287 258.548 92.1204 257.631C90.9224 256.704 90.0058 255.683 89.3704 254.568L92.9954 250.173H93.5579C94.5579 251.662 95.8287 252.839 97.3704 253.714C98.912 254.589 100.709 255.027 102.766 255.027C104.516 255.027 105.834 254.662 106.725 253.923C107.626 253.173 108.079 252.147 108.079 250.839C108.079 250.063 107.933 249.412 107.641 248.881C107.36 248.339 106.891 247.881 106.225 247.506C105.558 247.131 104.652 246.808 103.516 246.527L99.2454 245.548C96.2558 244.871 94.0266 243.735 92.5579 242.152C91.0995 240.568 90.3704 238.516 90.3704 235.985C90.3704 234.11 90.8391 232.464 91.787 231.048C92.7297 229.621 94.0995 228.506 95.8912 227.714C97.6829 226.923 99.8287 226.527 102.329 226.527C104.881 226.527 107.068 226.871 108.891 227.548C110.725 228.214 112.271 229.251 113.537 230.652L110.287 235.11H109.725C108.777 234.126 107.693 233.391 106.475 232.902C105.266 232.402 103.881 232.152 102.329 232.152C100.521 232.152 99.1464 232.475 98.2037 233.11C97.2714 233.735 96.8079 234.61 96.8079 235.735C96.8079 236.777 97.1308 237.61 97.787 238.235C98.4537 238.86 99.5995 239.35 101.225 239.693L105.579 240.61C108.797 241.292 111.141 242.443 112.6 244.068C114.058 245.693 114.787 247.818 114.787 250.443C114.787 252.516 114.334 254.318 113.433 255.86C112.542 257.402 111.193 258.6 109.391 259.443C107.6 260.287 105.391 260.714 102.766 260.714Z" fill="white"/>
<path d="M134.678 260.714C131.636 260.714 128.949 260.1 126.615 258.86C124.293 257.61 122.475 255.709 121.157 253.152C119.834 250.6 119.178 247.423 119.178 243.631C119.178 239.829 119.834 236.647 121.157 234.089C122.475 231.537 124.293 229.641 126.615 228.402C128.949 227.152 131.636 226.527 134.678 226.527C137.73 226.527 140.412 227.147 142.72 228.381C145.037 229.621 146.85 231.522 148.157 234.089C149.475 236.647 150.136 239.829 150.136 243.631C150.136 247.423 149.475 250.605 148.157 253.173C146.85 255.73 145.037 257.626 142.72 258.86C140.412 260.1 137.73 260.714 134.678 260.714ZM134.678 255.006C137.496 255.006 139.647 254.105 141.136 252.298C142.621 250.48 143.365 247.589 143.365 243.631C143.365 239.662 142.621 236.766 141.136 234.943C139.647 233.126 137.496 232.214 134.678 232.214C131.845 232.214 129.683 233.126 128.199 234.943C126.709 236.766 125.97 239.662 125.97 243.631C125.97 247.589 126.709 250.48 128.199 252.298C129.683 254.105 131.845 255.006 134.678 255.006Z" fill="white"/>
<path d="M163.455 260.235H157.08V227.006H164.601L177.955 248.423L178.538 248.318V227.006H184.851V260.235H178.121L164.017 237.381L163.455 237.464V260.235Z" fill="white"/>
<path d="M200.084 245.652V254.735H215.938V260.235H193.5V227.006H215.563V232.506H200.084V240.277H213.625V245.652H200.084Z" fill="white"/>
<path d="M222.06 260.235V227.006H235.414C238.841 227.006 241.435 227.798 243.185 229.381C244.935 230.964 245.81 233.152 245.81 235.943C245.81 237.959 245.294 239.61 244.268 240.902C243.253 242.183 241.732 243.167 239.706 243.86V244.318C240.747 244.777 241.586 245.459 242.227 246.36C242.878 247.251 243.487 248.568 244.06 250.318L247.372 260.235H240.622L237.372 250.298C237.039 249.298 236.664 248.527 236.247 247.985C235.831 247.433 235.3 247.027 234.664 246.777C234.023 246.527 233.19 246.402 232.164 246.402H228.643V260.235H222.06ZM234.602 241.193C237.779 241.193 239.372 239.709 239.372 236.735C239.372 233.725 237.779 232.214 234.602 232.214H228.643V241.193H234.602Z" fill="white"/>
<path d="M277.947 260.714C274.874 260.714 272.176 260.084 269.843 258.818C267.509 257.542 265.681 255.626 264.363 253.068C263.041 250.516 262.384 247.371 262.384 243.631C262.384 239.881 263.041 236.735 264.363 234.193C265.681 231.641 267.509 229.725 269.843 228.443C272.176 227.167 274.874 226.527 277.947 226.527C281.139 226.527 283.853 227.152 286.093 228.402C288.327 229.652 289.916 231.563 290.863 234.131L286.072 237.048L285.509 237.027C284.801 235.308 283.832 234.068 282.613 233.318C281.389 232.568 279.832 232.193 277.947 232.193C275.181 232.193 273.03 233.11 271.488 234.943C269.947 236.766 269.176 239.662 269.176 243.631C269.176 247.579 269.947 250.464 271.488 252.298C273.03 254.121 275.181 255.027 277.947 255.027C282.249 255.027 284.889 252.933 285.863 248.735H286.447L291.28 251.256C290.363 254.412 288.806 256.777 286.613 258.36C284.416 259.933 281.53 260.714 277.947 260.714Z" fill="white"/>
<path d="M310.465 260.714C307.424 260.714 304.736 260.1 302.403 258.86C300.08 257.61 298.262 255.709 296.944 253.152C295.621 250.6 294.965 247.423 294.965 243.631C294.965 239.829 295.621 236.647 296.944 234.089C298.262 231.537 300.08 229.641 302.403 228.402C304.736 227.152 307.424 226.527 310.465 226.527C313.517 226.527 316.2 227.147 318.507 228.381C320.825 229.621 322.637 231.522 323.944 234.089C325.262 236.647 325.924 239.829 325.924 243.631C325.924 247.423 325.262 250.605 323.944 253.173C322.637 255.73 320.825 257.626 318.507 258.86C316.2 260.1 313.517 260.714 310.465 260.714ZM310.465 255.006C313.283 255.006 315.434 254.105 316.924 252.298C318.408 250.48 319.153 247.589 319.153 243.631C319.153 239.662 318.408 236.766 316.924 234.943C315.434 233.126 313.283 232.214 310.465 232.214C307.632 232.214 305.47 233.126 303.986 234.943C302.496 236.766 301.757 239.662 301.757 243.631C301.757 247.589 302.496 250.48 303.986 252.298C305.47 254.105 307.632 255.006 310.465 255.006Z" fill="white"/>
<path d="M360.43 260.235H353.534L351.034 252.568H338.305L335.805 260.235H329.055L340.534 227.006H348.971L360.43 260.235ZM344.346 233.943L340.075 247.048H349.221L344.909 233.943H344.346Z" fill="white"/>
<path d="M371.827 227.006V254.735H386.744V260.235H365.244V227.006H371.827Z" fill="white"/>
<path d="M398.728 260.235H392.144V227.006H398.728V260.235Z" fill="white"/>
<path d="M429.68 227.006V232.527H420.096V260.235H413.555V232.527H403.971V227.006H429.68Z" fill="white"/>
<path d="M441.487 260.235H434.904V227.006H441.487V260.235Z" fill="white"/>
<path d="M463.918 260.714C460.877 260.714 458.189 260.1 455.856 258.86C453.533 257.61 451.715 255.709 450.398 253.152C449.075 250.6 448.418 247.423 448.418 243.631C448.418 239.829 449.075 236.647 450.398 234.089C451.715 231.537 453.533 229.641 455.856 228.402C458.189 227.152 460.877 226.527 463.918 226.527C466.97 226.527 469.653 227.147 471.96 228.381C474.278 229.621 476.09 231.522 477.398 234.089C478.715 236.647 479.377 239.829 479.377 243.631C479.377 247.423 478.715 250.605 477.398 253.173C476.09 255.73 474.278 257.626 471.96 258.86C469.653 260.1 466.97 260.714 463.918 260.714ZM463.918 255.006C466.736 255.006 468.887 254.105 470.377 252.298C471.861 250.48 472.606 247.589 472.606 243.631C472.606 239.662 471.861 236.766 470.377 234.943C468.887 233.126 466.736 232.214 463.918 232.214C461.085 232.214 458.924 233.126 457.439 234.943C455.95 236.766 455.21 239.662 455.21 243.631C455.21 247.589 455.95 250.48 457.439 252.298C458.924 254.105 461.085 255.006 463.918 255.006Z" fill="white"/>
<path d="M492.695 260.235H486.32V227.006H493.841L507.195 248.423L507.778 248.318V227.006H514.091V260.235H507.362L493.258 237.381L492.695 237.464V260.235Z" fill="white"/>
</svg>
